HIERARCHY
ROOT Hips
{
	OFFSET -14.64140 90.27770 -84.91600
	CHANNELS 6 Xposition Yposition Zposition Zrotation Xrotation Yrotation
	JOINT Spine
	{
		OFFSET 0.00000 13.20850 -1.60436
		CHANNELS 3 Zrotation Xrotation Yrotation
		JOINT Spine1
		{
			OFFSET 0.00000 8.61716 0.00000
			CHANNELS 3 Zrotation Xrotation Yrotation
			JOINT Spine2
			{
				OFFSET 0.00000 8.61717 0.00000
				CHANNELS 3 Zrotation Xrotation Yrotation
				JOINT Spine3
				{
					OFFSET 0.00000 8.61717 0.00000
					CHANNELS 3 Zrotation Xrotation Yrotation
					JOINT Neck
					{
						OFFSET 0.00000 11.07920 1.10792
						CHANNELS 3 Zrotation Xrotation Yrotation
						JOINT Neck1
						{
							OFFSET 0.00000 7.08032 0.00000
							CHANNELS 3 Zrotation Xrotation Yrotation
							JOINT Head
							{
								OFFSET 0.00000 7.08031 0.00000
								CHANNELS 3 Zrotation Xrotation Yrotation
								End site
								{
									OFFSET 0.00000 0.00000 0.00000
								}
							}
						}
					}
					JOINT RightShoulder
					{
						OFFSET -0.01000 7.91373 5.19711
						CHANNELS 3 Zrotation Xrotation Yrotation
						JOINT RightArm
						{
							OFFSET -18.41580 0.00000 0.00000
							CHANNELS 3 Zrotation Xrotation Yrotation
							JOINT RightForeArm
							{
								OFFSET -29.11090 0.00000 0.00000
								CHANNELS 3 Zrotation Xrotation Yrotation
								JOINT RightHand
								{
									OFFSET -24.65040 0.00000 0.00000
									CHANNELS 3 Zrotation Xrotation Yrotation
									JOINT RightHandThumb1
									{
										OFFSET -5.35114 -0.85590 3.97906
										CHANNELS 3 Zrotation Xrotation Yrotation
										JOINT RightHandThumb2
										{
											OFFSET -4.52789 0.00000 0.00000
											CHANNELS 3 Zrotation Xrotation Yrotation
											JOINT RightHandThumb3
											{
												OFFSET -2.46976 0.00000 0.00000
												CHANNELS 3 Zrotation Xrotation Yrotation
												End site
												{
													OFFSET 0.00000 0.00000 0.00000
												}
											}
										}
									}
									JOINT RightHandIndex1
									{
										OFFSET -14.26970 0.00000 2.88139
										CHANNELS 3 Zrotation Xrotation Yrotation
										JOINT RightHandIndex2
										{
											OFFSET -5.48836 0.00000 0.00000
											CHANNELS 3 Zrotation Xrotation Yrotation
											JOINT RightHandIndex3
											{
												OFFSET -3.01859 0.00000 0.00000
												CHANNELS 3 Zrotation Xrotation Yrotation
												End site
												{
													OFFSET 0.00000 0.00000 0.00000
												}
											}
										}
									}
									JOINT RightHandMiddle1
									{
										OFFSET -14.26970 0.00000 -0.09147
										CHANNELS 3 Zrotation Xrotation Yrotation
										JOINT RightHandMiddle2
										{
											OFFSET -6.17441 0.00000 0.00000
											CHANNELS 3 Zrotation Xrotation Yrotation
											JOINT RightHandMiddle3
											{
												OFFSET -3.56743 0.00000 0.00000
												CHANNELS 3 Zrotation Xrotation Yrotation
												End site
												{
													OFFSET 0.00000 0.00000 0.00000
												}
											}
										}
									}
									JOINT RightHandRing1
									{
										OFFSET -12.69180 0.00000 -3.06433
										CHANNELS 3 Zrotation Xrotation Yrotation
										JOINT RightHandRing2
										{
											OFFSET -5.62556 0.00000 0.00000
											CHANNELS 3 Zrotation Xrotation Yrotation
											JOINT RightHandRing3
											{
												OFFSET -3.56744 0.00000 0.00000
												CHANNELS 3 Zrotation Xrotation Yrotation
												End site
												{
													OFFSET 0.00000 0.00000 0.00000
												}
											}
										}
									}
									JOINT RightHandPinky1
									{
										OFFSET -11.11390 0.00000 -6.03719
										CHANNELS 3 Zrotation Xrotation Yrotation
										JOINT RightHandPinky2
										{
											OFFSET -4.52789 0.00000 0.00000
											CHANNELS 3 Zrotation Xrotation Yrotation
											JOINT RightHandPinky3
											{
												OFFSET -2.46976 0.00000 0.00000
												CHANNELS 3 Zrotation Xrotation Yrotation
												End site
												{
													OFFSET 0.00000 0.00000 0.00000
												}
											}
										}
									}
								}
							}
						}
					}
					JOINT LeftShoulder
					{
						OFFSET 0.01000 7.91373 5.19711
						CHANNELS 3 Zrotation Xrotation Yrotation
						JOINT LeftArm
						{
							OFFSET 18.41580 0.00000 0.00000
							CHANNELS 3 Zrotation Xrotation Yrotation
							JOINT LeftForeArm
							{
								OFFSET 29.11090 0.00000 0.00000
								CHANNELS 3 Zrotation Xrotation Yrotation
								JOINT LeftHand
								{
									OFFSET 24.65040 0.00000 0.00000
									CHANNELS 3 Zrotation Xrotation Yrotation
									JOINT LeftHandThumb1
									{
										OFFSET 5.35114 -0.85590 3.97906
										CHANNELS 3 Zrotation Xrotation Yrotation
										JOINT LeftHandThumb2
										{
											OFFSET 4.52789 0.00000 0.00000
											CHANNELS 3 Zrotation Xrotation Yrotation
											JOINT LeftHandThumb3
											{
												OFFSET 2.46977 0.00000 0.00000
												CHANNELS 3 Zrotation Xrotation Yrotation
												End site
												{
													OFFSET 0.00000 0.00000 0.00000
												}
											}
										}
									}
									JOINT LeftHandIndex1
									{
										OFFSET 14.26970 0.00000 2.88139
										CHANNELS 3 Zrotation Xrotation Yrotation
										JOINT LeftHandIndex2
										{
											OFFSET 5.48836 0.00000 0.00000
											CHANNELS 3 Zrotation Xrotation Yrotation
											JOINT LeftHandIndex3
											{
												OFFSET 3.01859 0.00000 0.00000
												CHANNELS 3 Zrotation Xrotation Yrotation
												End site
												{
													OFFSET 0.00000 0.00000 0.00000
												}
											}
										}
									}
									JOINT LeftHandMiddle1
									{
										OFFSET 14.26970 0.00000 -0.09147
										CHANNELS 3 Zrotation Xrotation Yrotation
										JOINT LeftHandMiddle2
										{
											OFFSET 6.17440 0.00000 0.00000
											CHANNELS 3 Zrotation Xrotation Yrotation
											JOINT LeftHandMiddle3
											{
												OFFSET 3.56744 0.00000 0.00000
												CHANNELS 3 Zrotation Xrotation Yrotation
												End site
												{
													OFFSET 0.00000 0.00000 0.00000
												}
											}
										}
									}
									JOINT LeftHandRing1
									{
										OFFSET 12.69180 0.00000 -3.06433
										CHANNELS 3 Zrotation Xrotation Yrotation
										JOINT LeftHandRing2
										{
											OFFSET 5.62556 0.00000 0.00000
											CHANNELS 3 Zrotation Xrotation Yrotation
											JOINT LeftHandRing3
											{
												OFFSET 3.56744 0.00000 0.00000
												CHANNELS 3 Zrotation Xrotation Yrotation
												End site
												{
													OFFSET 0.00000 0.00000 0.00000
												}
											}
										}
									}
									JOINT LeftHandPinky1
									{
										OFFSET 11.11390 0.00000 -6.03719
										CHANNELS 3 Zrotation Xrotation Yrotation
										JOINT LeftHandPinky2
										{
											OFFSET 4.52789 0.00000 0.00000
											CHANNELS 3 Zrotation Xrotation Yrotation
											JOINT LeftHandPinky3
											{
												OFFSET 2.46976 0.00000 0.00000
												CHANNELS 3 Zrotation Xrotation Yrotation
												End site
												{
													OFFSET 0.00000 0.00000 0.00000
												}
											}
										}
									}
								}
							}
						}
					}
					JOINT pCube4
					{
						OFFSET 0.00000 10.91090 1.10792
						CHANNELS 3 Zrotation Xrotation Yrotation
						End site
						{
							OFFSET 0.00000 0.00000 0.00000
						}
					}
				}
			}
		}
	}
	JOINT RightUpLeg
	{
		OFFSET -9.98441 0.00000 0.00000
		CHANNELS 3 Zrotation Xrotation Yrotation
		JOINT RightLeg
		{
			OFFSET 0.00000 -42.11790 0.00000
			CHANNELS 3 Zrotation Xrotation Yrotation
			JOINT RightFoot
			{
				OFFSET 0.00000 -45.00020 -0.00001
				CHANNELS 3 Zrotation Xrotation Yrotation
				JOINT RightForeFoot
				{
					OFFSET 0.00000 -3.74820 0.00000
					CHANNELS 3 Zrotation Xrotation Yrotation
					JOINT RightToeBase
					{
						OFFSET 0.00000 0.06325 14.43120
						CHANNELS 3 Zrotation Xrotation Yrotation
						End site
						{
							OFFSET 0.00000 0.00000 0.00000
						}
					}
				}
			}
		}
	}
	JOINT LeftUpLeg
	{
		OFFSET 9.98441 0.00000 0.00000
		CHANNELS 3 Zrotation Xrotation Yrotation
		JOINT LeftLeg
		{
			OFFSET 0.00000 -42.11800 0.00000
			CHANNELS 3 Zrotation Xrotation Yrotation
			JOINT LeftFoot
			{
				OFFSET 0.00000 -45.00070 0.00000
				CHANNELS 3 Zrotation Xrotation Yrotation
				JOINT LeftForeFoot
				{
					OFFSET 0.00000 -3.74824 0.00000
					CHANNELS 3 Zrotation Xrotation Yrotation
					JOINT LeftToeBase
					{
						OFFSET 0.00000 0.06325 14.43110
						CHANNELS 3 Zrotation Xrotation Yrotation
						End site
						{
							OFFSET 0.00000 0.00000 0.00000
						}
					}
				}
			}
		}
	}
}
MOTION
Frames: 4
Frame Time: 0.050000
0.03725319641526128 0.016728785989410935 -0.00011114955558188173 0.02008535995983496 -0.011013934524731546 -0.012017968968586947 -1.5240588432210669 1.8138190586777954 -0.9587900207005224 -0.9546102218446418 3.8976750377873763 0.3818657155249024 -1.022585440886991 -1.224404012331286 -0.7124558732966527 0.6874664515397308 0.4944913287448989 -0.8172115389608545 0.07773956878717742 11.714026420315264 -1.109859585522861 0.16697325592413959 -1.0526746398784663 -4.348337800775519 0.6250205504874276 -16.56182835958233 -0.3432848815280366 -2.0575438885389783 0.8716601642566111 -15.224903371837492 74.69716650042645 26.01988736642522 1.1922840619216366 11.646499035373619 2.2878926309084977 47.04282530788901 21.39935461709819 0.04621107268415016 -4.907421189638892 4.498336655618014 -0.1361849235854231 -1.5918512380499528 -0.039710525807721116 0.01764551329833007 -56.21689452846466 -0.02537688284667991 0.034338287858616166 -56.259824131377016 -38.775415861873384 -0.04900736543378184 -0.039613820405287006 0.01826643128281613 -0.04777130516741134 -0.029658978863499434 -0.02395034476516825 0.024491181540458165 -0.025890529514393797 -36.72054403754789 -0.038415554248425667 0.0028306261501380176 -0.04156760113316015 -0.033163090204140516 -0.02626269618508612 -0.020778088461049123 0.0006269245574994325 -0.02941571401633833 -19.80453352736653 0.02967569736486584 0.002901777454655506 -0.025320076434444783 -0.025534188903025504 0.04249891976351578 0.03551051162870215 0.02475247022210032 0.04403131089345321 24.045954340665958 0.009619873639321272 0.037803282866173356 28.915051912248497 0.02510217035527784 0.011082173566009552 28.892719420013655 -0.04466481229297133 -0.034538169173723675 3.610637887186732 1.0938282858119257 13.748646869999712 -69.89432007238219 34.73815182968296 -6.58942290379696 -4.060182233595954 -3.2292762340530685 -95.54916897533435 -14.544274869658043 -4.76411588141911 2.896012833454743 -0.461591954570521 0.07091381402658652 -8.095117977273544 0.018287621387524187 -0.033123490521402676 44.597731180778624 -0.008573772170914474 0.037154273941081645 44.55833939748483 12.4810993411195 0.006314499659612299 0.020323744543620927 0.03926306831002293 -0.024970634459917755 -0.007044371101023262 -0.01679387678125263 0.0012965640322123557 -0.020254767673710924 11.096336856501573 -0.003843739178483282 0.029003336577637148 -0.03298457162362915 0.04272207727885681 0.007715832726637959 -0.010088711347797564 -0.03222401934687744 0.02983897027440868 4.785779445482084 0.031844772465774274 -0.0051522151438907334 -0.021952464175174533 -0.023269360870753285 -0.04058563909988953 0.03932051081241174 -0.021331267061808983 0.02532305654570155 -5.597915109121204 0.007054577416953025 -0.013655863689429955 -6.710686263789055 -0.01923582184521955 -0.04390491970354701 -6.672705607583871 0.004362869655686347 0.028749261412909198 0.036554352985311366 0.0442392724237763 -0.005384606354650433 8.030022632793651 3.480086839324585 -19.19090537107362 0.004932660726021666 10.427617554691333 -0.017971442856186955 -5.6442530808712705 -15.66038798694045 3.2345722473927783 0.03567107102830076 -0.04893692806709519 0.0029825917912860893 0.0018531884402797803 4.716710552891117 -0.0071383582258007705 12.464236018434704 -8.217467953757058 6.890934519053667 -0.037469331322663925 46.3624693378634 -0.018109147124119235 -4.307758257849847 -14.78535294544114 -3.8110144490274918 -0.0357337211926101 0.002119348852723916 -0.0194042684058669 -0.028252862628164295 -10.705216715890934 -0.04206294850553408 
0.0373292679192046 0.008696001592186952 -0.007942991559671861 0.0388283488586182 0.038631272954398936 -0.02770165737726948 -1.4049422823695867 1.6751169967037243 -0.9915185119798852 -0.9316917835853833 3.887323136785952 0.370212858478167 -1.0790273069980172 -1.304698580467102 -0.7292455921222661 0.7412732198216048 0.43964557443356667 -0.8073824199760147 0.1480129817295058 11.66201901486819 -1.3653540536566802 0.22389786815522275 -0.904134946557119 -4.774356169479791 0.7213646171329925 -16.398946707559478 -0.3966744725006245 -2.2484852469505086 0.9467707643768838 -15.275950083691436 75.06436376313354 26.00599206114029 0.8169356555043119 12.356963940669718 2.7077329059701785 46.83318558258553 21.782554010892408 0.07442909584613515 -4.948503797167116 4.513978426468883 -0.12120275628850442 -1.6054048838521195 0.00021513137457149011 -0.019054951884456904 -56.187129038898256 0.013939850697363984 0.049518714424013656 -56.199010121631865 -38.74016622054348 0.0005611643267116943 0.0012735275647808104 -0.03507249318585533 0.026962863288903113 -0.02785506685518408 -0.010502806304054183 -0.017729680046302255 0.03654730913318539 -36.68721807051758 -0.04255767041796646 -0.014432052040459793 0.006760588992166368 0.018254107649997943 0.012419444045443031 0.014657899361027616 -0.026514702471464063 0.03455179465038667 -19.738170234388207 -0.01747230307846064 0.023046929317803663 0.029809991396685175 0.003063731366438048 -0.021339493735453064 -0.020793775820930237 0.0212953142560017 0.04951308774718306 24.01924553561007 0.029425027273103223 -0.03642657909309635 28.90138278423967 0.025601382401229913 -0.020242377438650434 28.889820066384058 -0.04377300693806885 0.03477065280475405 3.6125335510758863 1.052481111844444 13.693871365241511 -70.34643249460703 35.406386250052144 -5.609928784972009 -3.6947354648184723 -4.013465072819674 -96.27131878513285 -14.449080537806601 -4.9095160302805665 2.626716817209698 -0.47255470012094997 0.025902357276893426 -8.16369228070286 -0.00392518759084989 0.04048658490105823 44.56625775631774 -0.0016522705204289527 -0.002226662054460758 44.59708580820236 12.4987996823449 0.0317552072349054 -0.0370155845303245 0.033161155947093665 -0.031239510862790885 -0.024627045959650252 0.009151466969321488 -0.015723747346793954 0.02695032941830739 11.094517033148236 0.011632606448009826 0.013683968700823671 0.013455458569597008 0.03254167005833786 -0.024627277655503144 0.003520877868858108 -0.01453018941295959 0.026023113301710504 4.7827376525665235 -0.0388494611157878 -0.025902604322440466 -0.023780212290124936 -0.049337952247424315 0.0147415866675289 0.03457398687488932 0.019365749610461773 -0.004714646693654591 -5.555471467159327 0.010415833602679976 0.006502062446170208 -6.741712294902478 -0.010900376718751378 -0.025380550601939226 -6.678686100355898 0.016949948973738815 -0.016265289689602915 0.044311450417704346 0.01603686371348208 0.008042874767820661 8.056307028317134 3.48107311746737 -19.21795019150388 -0.015859420987450707 10.369312405649497 0.023871738289837997 -5.6249758292164636 -15.682488588796506 3.2035083251847953 0.037626215906838706 -0.03190108499098356 -0.008654020054294474 0.004869510127294681 4.699290743502145 0.022940776058265302 12.439720218311697 -8.209811145266798 6.852726663814105 0.04785998689682221 46.39788369043837 -0.03063614725413285 -4.297688918282635 -14.772012292481339 -3.832401127117312 -0.03293567218752785 -0.015789436057889933 -0.04293547872409983 -0.014194923649048568 -10.759481319204584 -0.048995053893267485 
-0.00973984897574424 0.04542728976760595 0.016836328404605142 0.006201682309634693 -0.014784534244664105 -0.019189285245791637 -1.3590846042353208 1.4275904632216363 -0.9436003719204026 -0.9412606357344625 3.9003058097193435 0.33320936900397125 -1.0186625969383547 -1.4611858860277454 -0.7443076826639944 0.6903945822719016 0.4222718212110066 -0.7833568130408456 0.21265736010697375 11.76203446438774 -1.3580137243724137 0.20856666557536113 -0.8059285375189422 -4.828366155722797 0.7848616703724369 -16.27203594977009 -0.4514866365756702 -2.4424619206421383 1.0005555821672243 -15.32171908880853 75.33870434501546 25.986587495228463 0.2533179360791178 12.934741116227142 3.367433651669786 46.51962037530694 22.092876790208322 0.07542789427066622 -4.879194078010347 4.495389932683654 -0.08744527655000017 -1.544237594666074 -0.014030672209061528 -0.017711268906715146 -56.25876833520883 -0.013544342257596924 0.002880726404351857 -56.23984007896536 -38.75867792270471 0.010487330479511208 -0.026152592901434076 -0.02833191625683494 0.008277868652740735 -0.01808648999966259 -0.0026554669274113513 0.021387476537700366 -0.013949552338161529 -36.7188149614497 -0.010744622552669546 -0.033576573340457626 -0.013686074660756487 0.03293685587493951 -0.02202307658038225 0.010031560992035869 0.02562445969532887 0.032974521829227145 -19.72090438454117 0.020875254445728603 -0.01311908082185212 0.03928962428501537 0.024470742002274355 -0.014704250789298297 0.012609747581386397 -0.025953165312828947 0.023226067416738248 24.092499003002512 -0.030739268637818676 0.04983905248950187 28.89869935476938 0.029398731231740218 -0.00207376375634441 28.870362679645343 -0.03787805069846388 0.0022992298654801444 3.7287710630154276 1.0817436118461061 13.728952354253721 -70.68801903797979 35.819836726364834 -4.800587426430547 -3.7316218937814107 -4.67910133100473 -96.8440099552345 -13.998154126264295 -4.822845211510259 2.128061091013222 -0.5145893305570133 0.07809247823180476 -8.118432185095887 -0.04169624800111202 -0.008698501828319043 44.55956868107379 -0.03684762847933637 -0.01947891432800198 44.60907320781028 12.446359735478664 0.043461503398072705 -0.012938599869365124 0.01066475333257768 -0.047911780427518556 0.04297722401849976 -0.00796548248954951 -0.032234800859694865 0.022882825251342935 11.099450929419866 -0.03653855757488389 -0.04112836205305529 0.04754405903373806 -0.0443085745293965 0.01958817284346725 -0.004634144391958814 -0.016446481934979378 0.011858331190312188 4.788833540698844 0.017845383308911483 -0.04991898483923113 0.008361283314982178 -0.006021064977415721 -0.04506034154705848 -0.009494501391157012 -0.033580175694816645 -0.007013250395022154 -5.5968024432555294 0.028952230301379393 -0.042194345920653076 -6.717221834149186 -0.031916082277500056 -0.03317665631977595 -6.694776712168156 0.018923314848609377 -0.015242464479104541 0.04949872460090597 0.00421898925550015 0.02993564013102127 8.067033989755846 3.4636534472221925 -19.204145518005124 0.030031449678128964 10.442639200562292 0.0452278283748362 -5.640804649901729 -15.681622606836315 3.1932607904927255 -0.0008608147650548741 0.04504946003169021 0.029601570130447036 -0.02970079915046936 4.698742400882344 0.035827697407934185 12.458238734603903 -8.211544214785592 6.9246043541450835 0.03015577881168016 46.33959471595179 -0.04762125250535913 -4.342038307688608 -14.718642816535649 -3.820831504505133 0.009552421525769978 -0.03841083539211519 -0.013296723174809018 0.030048201560270833 -10.725795544145248 0.012474089481933506 
0.007859593462104969 0.012389207506215043 0.012598772117337592 0.02290100046698235 0.02233011736065716 -5.972230431378128e-05 -1.3152755017226072 1.3168184007421184 -0.9858961958626902 -0.959811269504027 3.8953650493633005 0.3762065993500614 -1.114846654836349 -1.5413291649120318 -0.7401523071613169 0.6496781149374821 0.38987768161398023 -0.7656072760207658 0.2604276246670104 11.936559580859015 -1.318503843601534 0.3057740132220767 -0.6512666421977795 -4.612377316360283 0.8467988227919137 -15.996695189024091 -0.38318141929291016 -2.5056309171711963 1.1033148159720838 -15.315007267887639 75.55303436883403 26.193004249893328 -0.18491158099809293 13.580182069533318 3.7126462445844672 46.41523854150644 22.232614473464167 0.04028640878512722 -4.897398961524312 4.551326425997976 -0.10683763678528285 -1.6331448332365701 0.03630113076642741 -0.034369179505448516 -56.227411689402516 0.04529841944291503 0.016104284510282976 -56.19206023339612 -38.72603867984187 -0.04327746857479343 0.034275683636071905 0.047697096798819325 0.01180037683886313 0.011158372447819786 0.019145639563662976 0.020573353087251722 -0.002744896484679532 -36.666967330805726 0.022595448291808776 0.04770666328821734 -0.015611081952626917 -0.017549498885170944 0.03136142325351672 0.021869561286499493 -0.032542535662136475 0.04789653885714239 -19.7618604005441 0.019345289958509627 -0.040483608219278135 -0.03329617324510229 -0.029288328558698614 -0.018557120753222807 -0.016389007402238476 0.018369530521903793 0.020115078944652323 24.080023348834416 -0.028811420753324813 -0.020755148012142774 28.82523318814474 0.016604197221009653 -0.032739156927605935 28.831539784359986 -0.01117759909104901 -0.04910107562008235 3.8950701246025403 1.164444628696234 13.771177379672652 -70.93726070741079 36.195079313889025 -4.463725094151304 -3.565248242530451 -5.381286854846678 -97.77579737574978 -12.930559866470595 -4.533832715420539 1.3331616138250981 -0.49707309720174747 0.07821002436373312 -8.145507413288364 -0.005617631985850064 -0.040630222550556774 44.57146962029147 -0.025268494862299096 -0.017919849787953163 44.52129949168037 12.410914243168401 0.03782265765954415 0.004832740990940771 -0.00848115596014579 -0.03021289811168275 0.001641511977813166 0.02188062489463621 0.0013770872652923013 0.008810009122974291 11.144694690008265 0.01483072268725636 0.03189070406834714 0.008473274051691218 0.00026532279276746465 -0.013523855627347689 -0.03153858781837982 -0.00042075441823893704 0.03290859503865597 4.791816602929465 0.04672121782253736 -0.009180232574715431 0.03930985505943832 -0.03650476565175241 0.017004334988991357 0.0016149712180720014 0.019973277619435705 -0.02267220355475566 -5.607873073249224 -0.0021080716544039195 -0.044650866372261566 -6.724689249195019 0.04040489538255678 0.014055495255555646 -6.730370348081045 0.018910099424845686 -0.007252152695305679 -0.03640884917360516 -0.0457445138230196 0.025496675178366204 8.092126149061457 3.4548606397733277 -19.25437843303121 0.04461948372008296 10.363051851410608 0.02369010441597619 -5.630471853572507 -15.680469756005454 3.1617437379542386 -0.0241694037796152 0.04167150664179378 -0.02652506739684996 0.01956686390132977 4.694600316022051 0.04087236519985677 12.469290058105157 -8.20171063988232 6.867062994139229 -0.032753170050226765 46.406767621440395 0.0008332065769662546 -4.295631104483665 -14.78741073919599 -3.8332266694261934 -0.01652995857889728 0.003453987883690642 0.020376678110482885 0.04165945058753454 -10.78804834958021 0.02507665779008951 
